<svg width="92" height="81" viewBox="0 0 92 81" fill="none" xmlns="http://www.w3.org/2000/svg">
<path d="M8.8725 2.16842H5.61342V7.75789H3.26936V2.16842H0V0.242105H8.8725V2.16842Z" fill="#717171"/>
<path d="M15.2763 5.25263V7.75789H12.9322V5.26316L9.15908 0.242105H11.9966L14.1042 3.26316L16.2221 0.242105H19.0494L15.2763 5.25263Z" fill="#717171"/>
<path d="M25.6097 0.242105C26.6378 0.242105 27.3781 0.449123 27.8304 0.863158C28.2828 1.27719 28.509 1.91579 28.509 2.77895C28.509 3.64912 28.2828 4.29123 27.8304 4.70526C27.3781 5.11228 26.6378 5.31579 25.6097 5.31579H21.9497V7.75789H19.6056V0.242105H25.6097ZM25.0134 3.65263C25.3287 3.65263 25.5583 3.58597 25.7023 3.45263C25.853 3.3193 25.9284 3.11579 25.9284 2.84211C25.9284 2.5614 25.8565 2.35789 25.7125 2.23158C25.5686 2.09825 25.3356 2.03158 25.0134 2.03158H21.9497V3.65263H25.0134Z" fill="#717171"/>
<path d="M31.7287 3.11579H37.0954V4.70526H31.7287V6.03158H37.4346V7.75789H29.3846V0.242105H37.3215V1.9579H31.7287V3.11579Z" fill="#717171"/>
<path d="M44.4647 2.50526C44.403 2.17544 44.2179 1.94386 43.9095 1.81053C43.6011 1.67018 43.1556 1.6 42.573 1.6C41.9904 1.6 41.5723 1.65965 41.3187 1.77895C41.0719 1.89123 40.9486 2.05965 40.9486 2.28421C40.9486 2.46667 41.024 2.6 41.1748 2.68421C41.3255 2.76842 41.5723 2.82807 41.915 2.86316L44.8348 3.11579C45.6984 3.19298 46.3461 3.41404 46.7779 3.77895C47.2097 4.14386 47.4256 4.69474 47.4256 5.43158C47.4256 6.11228 47.2474 6.6386 46.891 7.01053C46.5346 7.38246 46.0171 7.6386 45.3386 7.77895C44.6669 7.92632 43.793 8 42.7169 8C41.6819 8 40.8355 7.92281 40.1775 7.76842C39.5264 7.61404 39.0192 7.34035 38.6559 6.94737C38.2995 6.54737 38.1076 5.98246 38.0802 5.25263H40.7944C40.8698 5.68772 41.0685 5.98246 41.3907 6.13684C41.7128 6.29123 42.196 6.36842 42.8403 6.36842C43.4777 6.36842 43.9403 6.30877 44.2282 6.18947C44.5161 6.06316 44.66 5.87018 44.66 5.61053C44.66 5.39298 44.5778 5.23509 44.4133 5.13684C44.2488 5.03158 44.0157 4.96491 43.7142 4.93684L40.8869 4.65263C40.0096 4.5614 39.3516 4.34737 38.9129 4.01053C38.4811 3.67368 38.2652 3.14386 38.2652 2.42105C38.2652 1.52982 38.6388 0.905263 39.3859 0.547368C40.1329 0.182456 41.2296 0 42.6758 0C44.122 0 45.222 0.185965 45.976 0.557895C46.7368 0.922807 47.1343 1.57193 47.1686 2.50526H44.4647Z" fill="#717171"/>
<path d="M55.1871 3.17895C55.1597 2.96842 55.0672 2.76491 54.9095 2.56842C54.7519 2.37193 54.5188 2.21053 54.2104 2.08421C53.9088 1.95088 53.5421 1.88421 53.1103 1.88421C52.3153 1.88421 51.7121 2.06667 51.3009 2.43158C50.8965 2.79649 50.6943 3.3193 50.6943 4C50.6943 4.6807 50.8965 5.20351 51.3009 5.56842C51.7121 5.93333 52.3153 6.11579 53.1103 6.11579C53.7615 6.11579 54.2584 5.97895 54.6011 5.70526C54.9438 5.43158 55.1357 5.08421 55.1768 4.66316H58.0041C57.9767 5.75088 57.5449 6.57895 56.7087 7.14737C55.8794 7.71579 54.6833 8 53.1206 8C51.5099 8 50.2728 7.67018 49.4092 7.01053C48.5524 6.34386 48.1241 5.34035 48.1241 4C48.1241 2.65965 48.5524 1.65965 49.4092 1C50.2728 0.333333 51.5099 0 53.1206 0C54.6696 0 55.8588 0.277193 56.6881 0.831579C57.5175 1.37895 57.9493 2.1614 57.9835 3.17895H55.1871Z" fill="#717171"/>
<path d="M68.2872 7.75789H65.5627L64.1542 5.34737H61.3167V7.75789H58.9726V0.242105H65.2234C66.2378 0.242105 66.9712 0.445614 67.4236 0.852632C67.8759 1.25965 68.1021 1.8807 68.1021 2.71579C68.1021 3.35439 67.965 3.8386 67.6909 4.16842C67.4167 4.49123 67.0261 4.71579 66.5189 4.84211V4.92632L68.2872 7.75789ZM64.658 3.64211C64.9596 3.64211 65.1755 3.57895 65.3057 3.45263C65.4428 3.32632 65.5113 3.13333 65.5113 2.87368C65.5113 2.61403 65.4428 2.42456 65.3057 2.30526C65.1755 2.17895 64.9596 2.11579 64.658 2.11579H61.3167V3.64211H64.658Z" fill="#717171"/>
<path d="M69.0829 7.75789V0.242105H71.427V7.75789H69.0829Z" fill="#717171"/>
<path d="M78.6211 0.242105C79.6492 0.242105 80.3895 0.449123 80.8418 0.863158C81.2942 1.27719 81.5204 1.91579 81.5204 2.77895C81.5204 3.64912 81.2942 4.29123 80.8418 4.70526C80.3895 5.11228 79.6492 5.31579 78.6211 5.31579H74.9611V7.75789H72.617V0.242105H78.6211ZM78.0248 3.65263C78.3401 3.65263 78.5697 3.58597 78.7136 3.45263C78.8644 3.3193 78.9398 3.11579 78.9398 2.84211C78.9398 2.5614 78.8679 2.35789 78.7239 2.23158C78.58 2.09825 78.347 2.03158 78.0248 2.03158H74.9611V3.65263H78.0248Z" fill="#717171"/>
<path d="M91 2.16842H87.7409V7.75789H85.3969V2.16842H82.1275V0.242105H91V2.16842Z" fill="#717171"/>
<path d="M17.618 25.5461H12.4648L9.80072 21.0263H4.43366V25.5461H0V11.4539H11.8231C13.7417 11.4539 15.1289 11.8355 15.9845 12.5987C16.8401 13.3618 17.2679 14.5263 17.2679 16.0921C17.2679 17.2895 17.0087 18.1974 16.4901 18.8158C15.9715 19.4211 15.2326 19.8421 14.2733 20.0789V20.2368L17.618 25.5461ZM10.7536 17.8289C11.324 17.8289 11.7323 17.7105 11.9787 17.4737C12.2379 17.2368 12.3676 16.875 12.3676 16.3882C12.3676 15.9013 12.2379 15.5461 11.9787 15.3224C11.7323 15.0855 11.324 14.9671 10.7536 14.9671H4.43366V17.8289H10.7536Z" fill="#717171"/>
<path d="M23.5567 16.8421H33.7074V19.8224H23.5567V22.3092H34.3492V25.5461H19.123V11.4539H34.1353V14.6711H23.5567V16.8421Z" fill="#717171"/>
<path d="M49.0461 23.3158H41.1706L40.1205 25.5461H35.2201L42.2401 11.4539H48.0544L55.016 25.5461H50.1157L49.0461 23.3158ZM47.5099 20.0592L45.157 15.1645H45.0403L42.7262 20.0592H47.5099Z" fill="#717171"/>
<path d="M67.9648 16.9605C67.913 16.5658 67.738 16.1842 67.4398 15.8158C67.1416 15.4474 66.7009 15.1447 66.1175 14.9079C65.5471 14.6579 64.8535 14.5329 64.0368 14.5329C62.533 14.5329 61.3921 14.875 60.6143 15.5592C59.8494 16.2434 59.467 17.2237 59.467 18.5C59.467 19.7763 59.8494 20.7566 60.6143 21.4408C61.3921 22.125 62.533 22.4671 64.0368 22.4671C65.2683 22.4671 66.2082 22.2105 66.8564 21.6974C67.5046 21.1842 67.8676 20.5329 67.9454 19.7434H73.293C73.2412 21.7829 72.4244 23.3355 70.8428 24.4013C69.2742 25.4671 67.012 26 64.0562 26C61.0097 26 58.6697 25.3816 57.0363 24.1447C55.4158 22.8947 54.6055 21.0132 54.6055 18.5C54.6055 15.9868 55.4158 14.1118 57.0363 12.875C58.6697 11.625 61.0097 11 64.0562 11C66.9861 11 69.2353 11.5197 70.8039 12.5592C72.3726 13.5855 73.1893 15.0526 73.2541 16.9605H67.9648Z" fill="#717171"/>
<path d="M91 15.0658H84.8357V25.5461H80.402V15.0658H74.2182V11.4539H91V15.0658Z" fill="#717171"/>
<path d="M5.45263 62.8694V55.7021H8.23421V62.8694H10.5553V55.249H13.5763V66H0.423684V55.4H3.42632V62.8694H5.45263Z" fill="#717171"/>
<path d="M4.38421 45.8602C3.80702 45.9426 3.40176 46.1898 3.16842 46.6017C2.92281 47.0136 2.8 47.6086 2.8 48.3866C2.8 49.1647 2.90439 49.7231 3.11316 50.0618C3.30965 50.3913 3.60439 50.5561 3.99737 50.5561C4.31667 50.5561 4.55 50.4554 4.69737 50.254C4.84474 50.0526 4.94912 49.7231 5.01053 49.2654L5.45263 45.3659C5.58772 44.2126 5.97456 43.3475 6.61316 42.7709C7.25175 42.1942 8.21579 41.9058 9.50526 41.9058C10.6965 41.9058 11.6175 42.1438 12.2684 42.6198C12.9193 43.0958 13.3675 43.7869 13.6132 44.6931C13.8711 45.5902 14 46.7573 14 48.1944C14 49.5766 13.8649 50.7071 13.5947 51.5858C13.3246 52.4554 12.8456 53.1328 12.1579 53.618C11.4579 54.094 10.4693 54.3503 9.19211 54.3869V50.762C9.95351 50.6613 10.4693 50.3959 10.7395 49.9656C11.0097 49.5354 11.1447 48.8901 11.1447 48.0296C11.1447 47.1784 11.0404 46.5605 10.8316 46.176C10.6105 45.7916 10.2728 45.5993 9.81842 45.5993C9.43772 45.5993 9.1614 45.7092 8.98947 45.9289C8.80526 46.1486 8.6886 46.4598 8.63947 46.8626L8.14211 50.6384C7.98246 51.8101 7.60789 52.6889 7.01842 53.2747C6.42895 53.8514 5.50175 54.1397 4.23684 54.1397C2.67719 54.1397 1.58421 53.6409 0.957894 52.6431C0.319298 51.6453 0 50.1808 0 48.2493C0 46.3179 0.325439 44.8487 0.976316 43.8418C1.61491 42.8258 2.75088 42.2949 4.38421 42.2491V45.8602Z" fill="#717171"/>
<path d="M5.19474 34.4098C5.19474 32.5242 5.53246 31.1511 6.2079 30.2907C6.87105 29.4302 7.93333 29 9.39474 29C10.9175 29 12.0658 29.4623 12.8395 30.3868C13.6009 31.3022 13.9816 32.7759 13.9816 34.808C13.9816 36.3001 13.7544 37.4946 13.3 38.3917C12.8456 39.2796 12.1211 39.9341 11.1263 40.3551C10.1316 40.7671 8.8114 40.973 7.16579 40.973C4.83246 40.973 3.10088 40.4924 1.97105 39.5313C0.841228 38.5702 0.276316 37.014 0.276316 34.8629C0.276316 32.8583 0.675439 31.4166 1.47368 30.5378C2.25965 29.6499 3.22982 29.1648 4.38421 29.0824V32.5974C3.48772 32.8445 3.03947 33.6043 3.03947 34.8767C3.03947 35.7829 3.26053 36.4694 3.70263 36.9362C4.14474 37.4031 4.94912 37.664 6.11579 37.7189V37.6228C5.80877 37.3024 5.58158 36.8584 5.43421 36.2909C5.27456 35.7142 5.19474 35.0872 5.19474 34.4098ZM7.84737 34.9179C7.84737 35.7875 7.98246 36.4328 8.25263 36.8539C8.51053 37.2749 8.93421 37.4855 9.52368 37.4855C10.1254 37.4855 10.5614 37.2749 10.8316 36.8539C11.1018 36.4328 11.2368 35.7875 11.2368 34.9179C11.2368 34.0574 11.1079 33.4304 10.85 33.0368C10.5798 32.6432 10.1377 32.4464 9.52368 32.4464C8.93421 32.4464 8.51053 32.6477 8.25263 33.0505C7.98246 33.4441 7.84737 34.0666 7.84737 34.9179Z" fill="#717171"/>
<path d="M33.0705 29V43H28.6527V37.5882H20.4178V43H16V29H20.4178V34.1373H28.6527V29H33.0705Z" fill="#717171"/>
<path d="M51.4407 32.5882H45.2984V43H40.8806V32.5882H34.7189V29H51.4407V32.5882Z" fill="#717171"/>
<path d="M73.7427 43H69.3249V33.098H69.2086L65.0814 43H61.6325L57.4084 32.9608H57.2922V43H53.0875V29H60.0242L63.3182 37.3726H63.4345L66.6703 29H73.7427V43Z" fill="#717171"/>
<path d="M75.9834 43V29H80.4012V39.451H91V43H75.9834Z" fill="#717171"/>
<path d="M33.862 53.852C33.7927 53.332 33.5587 52.8293 33.16 52.344C32.7613 51.8587 32.172 51.46 31.392 51.148C30.6293 50.8187 29.702 50.654 28.61 50.654C26.5993 50.654 25.074 51.1047 24.034 52.006C23.0113 52.9073 22.5 54.1987 22.5 55.88C22.5 57.5613 23.0113 58.8527 24.034 59.754C25.074 60.6553 26.5993 61.106 28.61 61.106C30.2567 61.106 31.5133 60.768 32.38 60.092C33.2467 59.416 33.732 58.558 33.836 57.518H40.986C40.9167 60.2047 39.8247 62.25 37.71 63.654C35.6127 65.058 32.588 65.76 28.636 65.76C24.5627 65.76 21.434 64.9453 19.25 63.316C17.0833 61.6693 16 59.1907 16 55.88C16 52.5693 17.0833 50.0993 19.25 48.47C21.434 46.8233 24.5627 46 28.636 46C32.5533 46 35.5607 46.6847 37.658 48.054C39.7553 49.406 40.8473 51.3387 40.934 53.852H33.862Z" fill="#717171"/>
<path d="M58.5933 52.188C58.4373 51.3733 57.9693 50.8013 57.1893 50.472C56.4093 50.1253 55.2826 49.952 53.8093 49.952C52.3359 49.952 51.2786 50.0993 50.6373 50.394C50.0133 50.6713 49.7013 51.0873 49.7013 51.642C49.7013 52.0927 49.8919 52.422 50.2733 52.63C50.6546 52.838 51.2786 52.9853 52.1453 53.072L59.5293 53.696C61.7133 53.8867 63.3513 54.4327 64.4433 55.334C65.5353 56.2353 66.0813 57.596 66.0813 59.416C66.0813 61.0973 65.6306 62.3973 64.7293 63.316C63.8279 64.2347 62.5193 64.8673 60.8033 65.214C59.1046 65.578 56.8946 65.76 54.1733 65.76C51.556 65.76 49.4153 65.5693 47.7513 65.188C46.1046 64.8067 44.8219 64.1307 43.9033 63.16C43.0019 62.172 42.5166 60.7767 42.4473 58.974H49.3113C49.5019 60.0487 50.0046 60.7767 50.8193 61.158C51.6339 61.5393 52.8559 61.73 54.4853 61.73C56.0973 61.73 57.2673 61.5827 57.9953 61.288C58.7233 60.976 59.0873 60.4993 59.0873 59.858C59.0873 59.3207 58.8793 58.9307 58.4633 58.688C58.0473 58.428 57.458 58.2633 56.6953 58.194L49.5453 57.492C47.3266 57.2667 45.6626 56.738 44.5533 55.906C43.4613 55.074 42.9153 53.7653 42.9153 51.98C42.9153 49.7787 43.8599 48.236 45.7493 47.352C47.6386 46.4507 50.4119 46 54.0693 46C57.7266 46 60.5086 46.4593 62.4153 47.378C64.3393 48.2793 65.3446 49.8827 65.4313 52.188H58.5933Z" fill="#717171"/>
<path d="M83.5777 52.188C83.4217 51.3733 82.9537 50.8013 82.1737 50.472C81.3937 50.1253 80.267 49.952 78.7937 49.952C77.3203 49.952 76.263 50.0993 75.6217 50.394C74.9977 50.6713 74.6857 51.0873 74.6857 51.642C74.6857 52.0927 74.8763 52.422 75.2577 52.63C75.639 52.838 76.263 52.9853 77.1297 53.072L84.5137 53.696C86.6977 53.8867 88.3357 54.4327 89.4277 55.334C90.5197 56.2353 91.0657 57.596 91.0657 59.416C91.0657 61.0973 90.615 62.3973 89.7137 63.316C88.8123 64.2347 87.5037 64.8673 85.7877 65.214C84.089 65.578 81.879 65.76 79.1577 65.76C76.5403 65.76 74.3997 65.5693 72.7357 65.188C71.089 64.8067 69.8063 64.1307 68.8877 63.16C67.9863 62.172 67.501 60.7767 67.4317 58.974H74.2957C74.4863 60.0487 74.989 60.7767 75.8037 61.158C76.6183 61.5393 77.8403 61.73 79.4697 61.73C81.0817 61.73 82.2517 61.5827 82.9797 61.288C83.7077 60.976 84.0717 60.4993 84.0717 59.858C84.0717 59.3207 83.8637 58.9307 83.4477 58.688C83.0317 58.428 82.4423 58.2633 81.6797 58.194L74.5297 57.492C72.311 57.2667 70.647 56.738 69.5377 55.906C68.4457 55.074 67.8997 53.7653 67.8997 51.98C67.8997 49.7787 68.8443 48.236 70.7337 47.352C72.623 46.4507 75.3963 46 79.0537 46C82.711 46 85.493 46.4593 87.3997 47.378C89.3237 48.2793 90.329 49.8827 90.4157 52.188H83.5777Z" fill="#717171"/>
<path d="M13.9217 69.3632V80.6368H9.76575L3.52389 73.5158H3.42908V80.6368H0V69.3632H4.23499L10.382 76.3737H10.4769V69.3632H13.9217Z" fill="#717171"/>
<path d="M19.3588 73.6737H27.6075V76.0579H19.3588V78.0474H28.129V80.6368H15.7559V69.3632H27.9552V71.9368H19.3588V73.6737Z" fill="#717171"/>
<path d="M44.2123 80.6368H39.4875L36.5008 77.1158L33.5142 80.6368H28.7894L34.1305 74.6684L29.3741 69.3632H33.9567L36.5166 72.4579L39.0766 69.3632H43.6434L38.8712 74.6684L44.2123 80.6368Z" fill="#717171"/>
<path d="M57.9923 72.2526H52.983V80.6368H49.3801V72.2526H44.355V69.3632H57.9923V72.2526Z" fill="#717171"/>
<path d="M57.0812 77.3368H60.9528V80.6368H57.0812V77.3368Z" fill="#717171"/>
<path d="M75.4034 75.7421C75.4034 77.0789 75.1347 78.1316 74.5975 78.9C74.0707 79.6684 73.3227 80.2105 72.3535 80.5263C71.3949 80.8421 70.2097 81 68.798 81C67.3864 81 66.2012 80.8421 65.2426 80.5263C64.2944 80.2105 63.557 79.6684 63.0302 78.9C62.514 78.1316 62.2559 77.0789 62.2559 75.7421V74.8737H65.8588V75.7579C65.8588 76.6105 66.1117 77.2211 66.6173 77.5895C67.1335 77.9579 67.8605 78.1421 68.798 78.1421C70.7997 78.1421 71.8005 77.3474 71.8005 75.7579V69.3632H75.4034V75.7421Z" fill="#717171"/>
<path d="M86.449 72.7579C86.3542 72.2632 86.0697 71.9158 85.5956 71.7158C85.1216 71.5053 84.4368 71.4 83.5414 71.4C82.6459 71.4 82.0033 71.4895 81.6135 71.6684C81.2342 71.8368 81.0446 72.0895 81.0446 72.4263C81.0446 72.7 81.1605 72.9 81.3923 73.0263C81.624 73.1526 82.0033 73.2421 82.53 73.2947L87.0179 73.6737C88.3452 73.7895 89.3408 74.1211 90.0045 74.6684C90.6682 75.2158 91 76.0421 91 77.1474C91 78.1684 90.7261 78.9579 90.1783 79.5158C89.6305 80.0737 88.8351 80.4579 87.7922 80.6684C86.7598 80.8895 85.4166 81 83.7626 81C82.1718 81 80.8708 80.8842 79.8595 80.6526C78.8587 80.4211 78.0791 80.0105 77.5207 79.4211C76.9729 78.8211 76.6779 77.9737 76.6358 76.8789H80.8076C80.9235 77.5316 81.229 77.9737 81.7241 78.2053C82.2193 78.4368 82.962 78.5526 83.9522 78.5526C84.932 78.5526 85.6431 78.4632 86.0855 78.2842C86.528 78.0947 86.7492 77.8053 86.7492 77.4158C86.7492 77.0895 86.6228 76.8526 86.37 76.7053C86.1171 76.5474 85.7589 76.4474 85.2954 76.4053L80.9498 75.9789C79.6014 75.8421 78.59 75.5211 77.9158 75.0158C77.2521 74.5105 76.9202 73.7158 76.9202 72.6316C76.9202 71.2947 77.4944 70.3579 78.6427 69.8211C79.791 69.2737 81.4765 69 83.6994 69C85.9222 69 87.6131 69.2789 88.7719 69.8368C89.9413 70.3842 90.5523 71.3579 90.6049 72.7579H86.449Z" fill="#717171"/>
</svg>
