<svg width="190" height="76" viewBox="0 0 190 76" fill="none" xmlns="http://www.w3.org/2000/svg">
<path d="M25.81 7.601H16.617V23H10.005V7.601H0.783V2.294H25.81V7.601ZM43.22 19.723H31.475L29.909 23H22.601L33.07 2.294H41.741L52.123 23H44.815L43.22 19.723ZM40.929 14.938L37.42 7.746H37.246L33.795 14.938H40.929ZM53.8763 23V2.294H60.4883V23H53.8763ZM63.8451 23V2.294H70.4571V17.751H86.3201V23H63.8451ZM107.112 23L103.516 9.892H103.342L99.7455 23H91.5675L85.2165 2.294H92.4665L96.0045 15.605H96.1785L99.7745 2.294H107.054L110.708 15.605H110.882L114.42 2.294H121.612L115.174 23H107.112ZM123.318 23V2.294H129.93V23H123.318ZM158.835 2.294V23H151.208L139.753 9.921H139.579V23H133.286V2.294H141.058L152.339 15.17H152.513V2.294H158.835ZM176.586 2.294C180.472 2.294 183.372 3.106 185.286 4.73C187.219 6.354 188.186 8.993 188.186 12.647C188.186 16.3203 187.229 18.969 185.315 20.593C183.401 22.1977 180.491 23 176.586 23H162.202V2.294H176.586ZM168.814 7.369V17.925H175.078C177.03 17.925 178.49 17.5093 179.457 16.678C180.443 15.8467 180.936 14.503 180.936 12.647C180.936 10.791 180.443 9.44733 179.457 8.616C178.49 7.78467 177.03 7.369 175.078 7.369H168.814Z" fill="#717171"/>
<path d="M61.072 54.872C61.6907 55.0213 62.176 55.3147 62.528 55.752C62.8907 56.1787 63.072 56.8133 63.072 57.656C63.072 58.776 62.752 59.6133 62.112 60.168C61.4827 60.7227 60.4587 61 59.04 61H48.928V49.576H58.768C61.36 49.576 62.656 50.5627 62.656 52.536C62.656 53.72 62.128 54.4667 61.072 54.776V54.872ZM57.52 54.072C57.9253 54.072 58.224 53.992 58.416 53.832C58.608 53.672 58.704 53.4213 58.704 53.08C58.704 52.728 58.608 52.4773 58.416 52.328C58.224 52.168 57.9253 52.088 57.52 52.088H52.576V54.072H57.52ZM57.744 58.536C58.2027 58.536 58.5333 58.4453 58.736 58.264C58.9493 58.072 59.056 57.784 59.056 57.4C59.056 57.0053 58.9547 56.7173 58.752 56.536C58.5493 56.3547 58.2133 56.264 57.744 56.264H52.576V58.536H57.744ZM72.1366 49.208C74.7073 49.208 76.67 49.7093 78.0246 50.712C79.39 51.7147 80.0726 53.24 80.0726 55.288C80.0726 57.336 79.39 58.8613 78.0246 59.864C76.67 60.8667 74.7073 61.368 72.1366 61.368C69.566 61.368 67.6033 60.8667 66.2486 59.864C64.894 58.8613 64.2166 57.336 64.2166 55.288C64.2166 53.24 64.894 51.7147 66.2486 50.712C67.6033 49.7093 69.566 49.208 72.1366 49.208ZM72.1366 58.504C73.4593 58.504 74.446 58.2267 75.0966 57.672C75.7473 57.1173 76.0726 56.3227 76.0726 55.288C76.0726 54.2533 75.7473 53.4587 75.0966 52.904C74.446 52.3493 73.4593 52.072 72.1366 52.072C70.8246 52.072 69.8433 52.3493 69.1926 52.904C68.542 53.4587 68.2166 54.2533 68.2166 55.288C68.2166 56.3227 68.542 57.1173 69.1926 57.672C69.8433 58.2267 70.8246 58.504 72.1366 58.504ZM89.1523 49.208C91.7229 49.208 93.6856 49.7093 95.0403 50.712C96.4056 51.7147 97.0883 53.24 97.0883 55.288C97.0883 57.336 96.4056 58.8613 95.0403 59.864C93.6856 60.8667 91.7229 61.368 89.1523 61.368C86.5816 61.368 84.6189 60.8667 83.2643 59.864C81.9096 58.8613 81.2323 57.336 81.2323 55.288C81.2323 53.24 81.9096 51.7147 83.2643 50.712C84.6189 49.7093 86.5816 49.208 89.1523 49.208ZM89.1523 58.504C90.4749 58.504 91.4616 58.2267 92.1123 57.672C92.7629 57.1173 93.0883 56.3227 93.0883 55.288C93.0883 54.2533 92.7629 53.4587 92.1123 52.904C91.4616 52.3493 90.4749 52.072 89.1523 52.072C87.8403 52.072 86.8589 52.3493 86.2083 52.904C85.5576 53.4587 85.2323 54.2533 85.2323 55.288C85.2323 56.3227 85.5576 57.1173 86.2083 57.672C86.8589 58.2267 87.8403 58.504 89.1523 58.504ZM111.428 52.504H106.356V61H102.708V52.504H97.6195V49.576H111.428V52.504ZM121.944 53.016C121.848 52.5147 121.56 52.1627 121.08 51.96C120.6 51.7467 119.906 51.64 119 51.64C118.093 51.64 117.442 51.7307 117.048 51.912C116.664 52.0827 116.472 52.3387 116.472 52.68C116.472 52.9573 116.589 53.16 116.824 53.288C117.058 53.416 117.442 53.5067 117.976 53.56L122.52 53.944C123.864 54.0613 124.872 54.3973 125.544 54.952C126.216 55.5067 126.552 56.344 126.552 57.464C126.552 58.4987 126.274 59.2987 125.72 59.864C125.165 60.4293 124.36 60.8187 123.304 61.032C122.258 61.256 120.898 61.368 119.224 61.368C117.613 61.368 116.296 61.2507 115.272 61.016C114.258 60.7813 113.469 60.3653 112.904 59.768C112.349 59.16 112.05 58.3013 112.008 57.192H116.232C116.349 57.8533 116.658 58.3013 117.16 58.536C117.661 58.7707 118.413 58.888 119.416 58.888C120.408 58.888 121.128 58.7973 121.576 58.616C122.024 58.424 122.248 58.1307 122.248 57.736C122.248 57.4053 122.12 57.1653 121.864 57.016C121.608 56.856 121.245 56.7547 120.776 56.712L116.376 56.28C115.01 56.1413 113.986 55.816 113.304 55.304C112.632 54.792 112.296 53.9867 112.296 52.888C112.296 51.5333 112.877 50.584 114.039 50.04C115.202 49.4853 116.909 49.208 119.16 49.208C121.41 49.208 123.122 49.4907 124.296 50.056C125.48 50.6107 126.098 51.5973 126.152 53.016H121.944ZM140.771 52.504H135.699V61H132.051V52.504H126.963V49.576H140.771V52.504ZM156.627 61H152.387L150.195 57.336H145.779V61H142.131V49.576H151.859C153.438 49.576 154.579 49.8853 155.283 50.504C155.987 51.1227 156.339 52.0667 156.339 53.336C156.339 54.3067 156.126 55.0427 155.699 55.544C155.272 56.0347 154.664 56.376 153.875 56.568V56.696L156.627 61ZM150.979 54.744C151.448 54.744 151.784 54.648 151.987 54.456C152.2 54.264 152.307 53.9707 152.307 53.576C152.307 53.1813 152.2 52.8933 151.987 52.712C151.784 52.52 151.448 52.424 150.979 52.424H145.779V54.744H150.979ZM168.267 59.192H161.787L160.923 61H156.891L162.667 49.576H167.451L173.179 61H169.147L168.267 59.192ZM167.003 56.552L165.067 52.584H164.971L163.067 56.552H167.003ZM183.491 49.576C185.091 49.576 186.243 49.8907 186.947 50.52C187.651 51.1493 188.003 52.12 188.003 53.432C188.003 54.7547 187.651 55.7307 186.947 56.36C186.243 56.9787 185.091 57.288 183.491 57.288H177.795V61H174.147V49.576H183.491ZM182.563 54.76C183.053 54.76 183.411 54.6587 183.635 54.456C183.869 54.2533 183.987 53.944 183.987 53.528C183.987 53.1013 183.875 52.792 183.651 52.6C183.427 52.3973 183.064 52.296 182.563 52.296H177.795V54.76H182.563Z" fill="#717171"/>
<path d="M96.692 68.012C96.62 67.636 96.404 67.372 96.044 67.22C95.684 67.06 95.164 66.98 94.484 66.98C93.804 66.98 93.316 67.048 93.02 67.184C92.732 67.312 92.588 67.504 92.588 67.76C92.588 67.968 92.676 68.12 92.852 68.216C93.028 68.312 93.316 68.38 93.716 68.42L97.124 68.708C98.132 68.796 98.888 69.048 99.392 69.464C99.896 69.88 100.148 70.508 100.148 71.348C100.148 72.124 99.94 72.724 99.524 73.148C99.108 73.572 98.504 73.864 97.712 74.024C96.928 74.192 95.908 74.276 94.652 74.276C93.444 74.276 92.456 74.188 91.688 74.012C90.928 73.836 90.336 73.524 89.912 73.076C89.496 72.62 89.272 71.976 89.24 71.144H92.408C92.496 71.64 92.728 71.976 93.104 72.152C93.48 72.328 94.044 72.416 94.796 72.416C95.54 72.416 96.08 72.348 96.416 72.212C96.752 72.068 96.92 71.848 96.92 71.552C96.92 71.304 96.824 71.124 96.632 71.012C96.44 70.892 96.168 70.816 95.816 70.784L92.516 70.46C91.492 70.356 90.724 70.112 90.212 69.728C89.708 69.344 89.456 68.74 89.456 67.916C89.456 66.9 89.892 66.188 90.764 65.78C91.636 65.364 92.916 65.156 94.604 65.156C96.292 65.156 97.576 65.368 98.456 65.792C99.344 66.208 99.808 66.948 99.848 68.012H96.692ZM108.853 72.644H103.993L103.345 74H100.321L104.653 65.432H108.241L112.537 74H109.513L108.853 72.644ZM107.905 70.664L106.453 67.688H106.381L104.953 70.664H107.905ZM120.047 68.012C119.975 67.636 119.759 67.372 119.399 67.22C119.039 67.06 118.519 66.98 117.839 66.98C117.159 66.98 116.671 67.048 116.375 67.184C116.087 67.312 115.943 67.504 115.943 67.76C115.943 67.968 116.031 68.12 116.207 68.216C116.383 68.312 116.671 68.38 117.071 68.42L120.479 68.708C121.487 68.796 122.243 69.048 122.747 69.464C123.251 69.88 123.503 70.508 123.503 71.348C123.503 72.124 123.295 72.724 122.879 73.148C122.463 73.572 121.859 73.864 121.067 74.024C120.283 74.192 119.263 74.276 118.007 74.276C116.799 74.276 115.811 74.188 115.043 74.012C114.283 73.836 113.691 73.524 113.267 73.076C112.851 72.62 112.627 71.976 112.595 71.144H115.763C115.851 71.64 116.083 71.976 116.459 72.152C116.835 72.328 117.399 72.416 118.151 72.416C118.895 72.416 119.435 72.348 119.771 72.212C120.107 72.068 120.275 71.848 120.275 71.552C120.275 71.304 120.179 71.124 119.987 71.012C119.795 70.892 119.523 70.816 119.171 70.784L115.871 70.46C114.847 70.356 114.079 70.112 113.567 69.728C113.063 69.344 112.811 68.74 112.811 67.916C112.811 66.9 113.247 66.188 114.119 65.78C114.991 65.364 116.271 65.156 117.959 65.156C119.647 65.156 120.931 65.368 121.811 65.792C122.699 66.208 123.163 66.948 123.203 68.012H120.047ZM131.579 68.012C131.507 67.636 131.291 67.372 130.931 67.22C130.571 67.06 130.051 66.98 129.371 66.98C128.691 66.98 128.203 67.048 127.907 67.184C127.619 67.312 127.475 67.504 127.475 67.76C127.475 67.968 127.563 68.12 127.739 68.216C127.915 68.312 128.203 68.38 128.603 68.42L132.011 68.708C133.019 68.796 133.775 69.048 134.279 69.464C134.783 69.88 135.035 70.508 135.035 71.348C135.035 72.124 134.827 72.724 134.411 73.148C133.995 73.572 133.391 73.864 132.599 74.024C131.815 74.192 130.795 74.276 129.539 74.276C128.331 74.276 127.343 74.188 126.575 74.012C125.815 73.836 125.223 73.524 124.799 73.076C124.383 72.62 124.159 71.976 124.127 71.144H127.295C127.383 71.64 127.615 71.976 127.991 72.152C128.367 72.328 128.931 72.416 129.683 72.416C130.427 72.416 130.967 72.348 131.303 72.212C131.639 72.068 131.807 71.848 131.807 71.552C131.807 71.304 131.711 71.124 131.519 71.012C131.327 70.892 131.055 70.816 130.703 70.784L127.403 70.46C126.379 70.356 125.611 70.112 125.099 69.728C124.595 69.344 124.343 68.74 124.343 67.916C124.343 66.9 124.779 66.188 125.651 65.78C126.523 65.364 127.803 65.156 129.491 65.156C131.179 65.156 132.463 65.368 133.343 65.792C134.231 66.208 134.695 66.948 134.735 68.012H131.579ZM141.49 65.432L137.734 74H135.658L139.414 65.432H141.49ZM149.274 68.012C149.202 67.636 148.986 67.372 148.626 67.22C148.266 67.06 147.746 66.98 147.066 66.98C146.386 66.98 145.898 67.048 145.602 67.184C145.314 67.312 145.17 67.504 145.17 67.76C145.17 67.968 145.258 68.12 145.434 68.216C145.61 68.312 145.898 68.38 146.298 68.42L149.706 68.708C150.714 68.796 151.47 69.048 151.974 69.464C152.478 69.88 152.73 70.508 152.73 71.348C152.73 72.124 152.522 72.724 152.106 73.148C151.69 73.572 151.086 73.864 150.294 74.024C149.51 74.192 148.49 74.276 147.234 74.276C146.026 74.276 145.038 74.188 144.27 74.012C143.51 73.836 142.918 73.524 142.494 73.076C142.078 72.62 141.854 71.976 141.822 71.144H144.99C145.078 71.64 145.31 71.976 145.686 72.152C146.062 72.328 146.626 72.416 147.378 72.416C148.122 72.416 148.662 72.348 148.998 72.212C149.334 72.068 149.502 71.848 149.502 71.552C149.502 71.304 149.406 71.124 149.214 71.012C149.022 70.892 148.75 70.816 148.398 70.784L145.098 70.46C144.074 70.356 143.306 70.112 142.794 69.728C142.29 69.344 142.038 68.74 142.038 67.916C142.038 66.9 142.474 66.188 143.346 65.78C144.218 65.364 145.498 65.156 147.186 65.156C148.874 65.156 150.158 65.368 151.038 65.792C151.926 66.208 152.39 66.948 152.43 68.012H149.274ZM161.789 68.78C161.757 68.54 161.649 68.308 161.465 68.084C161.281 67.86 161.009 67.676 160.649 67.532C160.297 67.38 159.869 67.304 159.365 67.304C158.437 67.304 157.733 67.512 157.253 67.928C156.781 68.344 156.545 68.94 156.545 69.716C156.545 70.492 156.781 71.088 157.253 71.504C157.733 71.92 158.437 72.128 159.365 72.128C160.125 72.128 160.705 71.972 161.105 71.66C161.505 71.348 161.729 70.952 161.777 70.472H165.077C165.045 71.712 164.541 72.656 163.565 73.304C162.597 73.952 161.201 74.276 159.377 74.276C157.497 74.276 156.053 73.9 155.045 73.148C154.045 72.388 153.545 71.244 153.545 69.716C153.545 68.188 154.045 67.048 155.045 66.296C156.053 65.536 157.497 65.156 159.377 65.156C161.185 65.156 162.573 65.472 163.541 66.104C164.509 66.728 165.013 67.62 165.053 68.78H161.789ZM173.204 68.012C173.132 67.636 172.916 67.372 172.556 67.22C172.196 67.06 171.676 66.98 170.996 66.98C170.316 66.98 169.828 67.048 169.532 67.184C169.244 67.312 169.1 67.504 169.1 67.76C169.1 67.968 169.188 68.12 169.364 68.216C169.54 68.312 169.828 68.38 170.228 68.42L173.636 68.708C174.644 68.796 175.4 69.048 175.904 69.464C176.408 69.88 176.66 70.508 176.66 71.348C176.66 72.124 176.452 72.724 176.036 73.148C175.62 73.572 175.016 73.864 174.224 74.024C173.44 74.192 172.42 74.276 171.164 74.276C169.956 74.276 168.968 74.188 168.2 74.012C167.44 73.836 166.848 73.524 166.424 73.076C166.008 72.62 165.784 71.976 165.752 71.144H168.92C169.008 71.64 169.24 71.976 169.616 72.152C169.992 72.328 170.556 72.416 171.308 72.416C172.052 72.416 172.592 72.348 172.928 72.212C173.264 72.068 173.432 71.848 173.432 71.552C173.432 71.304 173.336 71.124 173.144 71.012C172.952 70.892 172.68 70.816 172.328 70.784L169.028 70.46C168.004 70.356 167.236 70.112 166.724 69.728C166.22 69.344 165.968 68.74 165.968 67.916C165.968 66.9 166.404 66.188 167.276 65.78C168.148 65.364 169.428 65.156 171.116 65.156C172.804 65.156 174.088 65.368 174.968 65.792C175.856 66.208 176.32 66.948 176.36 68.012H173.204ZM184.735 68.012C184.663 67.636 184.447 67.372 184.087 67.22C183.727 67.06 183.207 66.98 182.527 66.98C181.847 66.98 181.359 67.048 181.063 67.184C180.775 67.312 180.631 67.504 180.631 67.76C180.631 67.968 180.719 68.12 180.895 68.216C181.071 68.312 181.359 68.38 181.759 68.42L185.167 68.708C186.175 68.796 186.931 69.048 187.435 69.464C187.939 69.88 188.191 70.508 188.191 71.348C188.191 72.124 187.983 72.724 187.567 73.148C187.151 73.572 186.547 73.864 185.755 74.024C184.971 74.192 183.951 74.276 182.695 74.276C181.487 74.276 180.499 74.188 179.731 74.012C178.971 73.836 178.379 73.524 177.955 73.076C177.539 72.62 177.315 71.976 177.283 71.144H180.451C180.539 71.64 180.771 71.976 181.147 72.152C181.523 72.328 182.087 72.416 182.839 72.416C183.583 72.416 184.123 72.348 184.459 72.212C184.795 72.068 184.963 71.848 184.963 71.552C184.963 71.304 184.867 71.124 184.675 71.012C184.483 70.892 184.211 70.816 183.859 70.784L180.559 70.46C179.535 70.356 178.767 70.112 178.255 69.728C177.751 69.344 177.499 68.74 177.499 67.916C177.499 66.9 177.935 66.188 178.807 65.78C179.679 65.364 180.959 65.156 182.647 65.156C184.335 65.156 185.619 65.368 186.499 65.792C187.387 66.208 187.851 66.948 187.891 68.012H184.735Z" fill="#717171"/>
<path d="M43.356 44H39.024V34.405H38.91L34.863 44H31.481L27.339 34.272H27.225V44H23.102V30.434H29.904L33.134 38.547H33.248L36.421 30.434H43.356V44ZM57.9982 41.853H50.3032L49.2772 44H44.4892L51.3482 30.434H57.0292L63.8312 44H59.0432L57.9982 41.853ZM56.4972 38.718L54.1982 34.006H54.0842L51.8232 38.718H56.4972ZM78.0975 33.911H72.0745V44H67.7425V33.911H61.7005V30.434H78.0975V33.911ZM84.0444 35.621H93.9624V38.49H84.0444V40.884H94.5894V44H79.7124V30.434H94.3804V33.531H84.0444V35.621ZM113.718 44H108.683L106.08 39.649H100.836V44H96.5043V30.434H108.056C109.931 30.434 111.286 30.8013 112.122 31.536C112.958 32.2707 113.376 33.3917 113.376 34.899C113.376 36.0517 113.123 36.9257 112.616 37.521C112.11 38.1037 111.388 38.509 110.45 38.737V38.889L113.718 44ZM107.011 36.571C107.569 36.571 107.968 36.457 108.208 36.229C108.462 36.001 108.588 35.6527 108.588 35.184C108.588 34.7153 108.462 34.3733 108.208 34.158C107.968 33.93 107.569 33.816 107.011 33.816H100.836V36.571H107.011ZM115.189 44V30.434H119.521V44H115.189ZM134.165 41.853H126.47L125.444 44H120.656L127.515 30.434H133.196L139.998 44H135.21L134.165 41.853ZM132.664 38.718L130.365 34.006H130.251L127.99 38.718H132.664ZM141.147 44V30.434H145.479V40.561H155.872V44H141.147ZM181.114 30.434V38.186C181.114 39.7567 180.778 41.0043 180.107 41.929C179.448 42.841 178.511 43.487 177.295 43.867C176.079 44.247 174.578 44.437 172.792 44.437C171.006 44.437 169.505 44.247 168.289 43.867C167.073 43.487 166.129 42.841 165.458 41.929C164.799 41.0043 164.47 39.7567 164.47 38.186V30.434H168.802V38.11C168.802 39.1613 169.144 39.9087 169.828 40.352C170.525 40.7827 171.513 40.998 172.792 40.998C174.071 40.998 175.053 40.7827 175.737 40.352C176.434 39.9087 176.782 39.1613 176.782 38.11V30.434H181.114ZM183.322 44V30.434H187.654V44H183.322Z" fill="#717171"/>
</svg>
